<svg xmlns="http://www.w3.org/2000/svg" viewBox="0 0 128 128" role="img" aria-label="sprout">
  <g fill="#72c85a">
    <path d="M61 70c-2 16-3 33-3 50 0 3 2 5 5 5s5-2 5-5c0-17 1-34 3-50h-10z"/>
    <path d="M63 74c-7-17-23-32-43-37-6-1-11-2-15-1 4 13 12 25 24 33 10 7 23 10 34 5z"/>
    <path d="M65 73c7-16 21-30 39-35 6-1 11-2 15-1-3 13-11 24-22 32-10 7-22 10-32 4z"/>
    <path d="M63 72c0-11 2-21 7-30 1-2 3-2 5-1 2 1 2 3 1 5-4 8-6 17-6 26h-7z"/>
  </g>
  <g fill="none" stroke="#94d882" stroke-linecap="round" stroke-width="2.6" opacity=".6">
    <path d="M26 50c10 1 19 6 27 13"/>
    <path d="M76 58c9-8 19-13 30-14"/>
    <path d="M37 58c6 2 12 5 17 10"/>
    <path d="M84 66c5-4 10-7 16-8"/>
  </g>
</svg>
